<svg width="170" height="57" viewBox="0 0 170 57" fill="none" xmlns="http://www.w3.org/2000/svg">
<rect x="0.678223" width="168.828" height="56.2761" rx="10" fill="#EFEFEF"/>
<path d="M77.115 35H78.776L75.3 26.86H73.859L70.383 35H72.044L72.704 33.383H76.455L77.115 35ZM73.232 32.096L74.585 28.785L75.938 32.096H73.232ZM82.976 28.961C82.063 28.961 81.403 29.335 80.985 29.962L80.952 29.071H79.511V37.42H81.007V34.142C81.425 34.747 82.074 35.11 82.976 35.11C84.571 35.11 85.814 33.867 85.814 32.008C85.814 30.171 84.571 28.961 82.976 28.961ZM82.635 33.823C81.656 33.823 81.007 33.108 81.007 32.03C81.007 30.952 81.656 30.237 82.635 30.237C83.603 30.237 84.263 30.952 84.263 32.019C84.263 33.108 83.603 33.823 82.635 33.823ZM90.4525 28.961C89.5395 28.961 88.8795 29.335 88.4615 29.962L88.4285 29.071H86.9875V37.42H88.4835V34.142C88.9015 34.747 89.5505 35.11 90.4525 35.11C92.0475 35.11 93.2905 33.867 93.2905 32.008C93.2905 30.171 92.0475 28.961 90.4525 28.961ZM90.1115 33.823C89.1325 33.823 88.4835 33.108 88.4835 32.03C88.4835 30.952 89.1325 30.237 90.1115 30.237C91.0795 30.237 91.7395 30.952 91.7395 32.019C91.7395 33.108 91.0795 33.823 90.1115 33.823ZM99.9649 35.11C101.835 35.11 103.089 34.142 103.089 32.701C103.089 31.238 101.758 30.556 100.504 30.215L100.031 30.083C99.2279 29.852 98.5789 29.621 98.5789 28.972C98.5789 28.4 99.1399 28.037 99.9979 28.037C100.79 28.037 101.439 28.279 102.044 28.763L102.737 27.685C101.956 27.058 101.032 26.75 99.9869 26.75C98.1719 26.75 96.9729 27.74 96.9729 29.225C96.9729 30.556 97.9739 31.117 99.3159 31.48L99.7779 31.612C100.801 31.898 101.483 32.184 101.483 32.844C101.483 33.471 100.889 33.823 99.8659 33.823C99.1179 33.823 98.3479 33.614 97.6549 33.042L97.0719 34.087C97.7979 34.758 98.8429 35.11 99.9649 35.11ZM106.967 33.823C106.483 33.823 106.153 33.471 106.153 32.932V30.292H107.902V29.071H106.153V27.333H104.657V29.071H103.678V30.292H104.657V33.24C104.657 34.362 105.394 35.11 106.483 35.11C107.011 35.11 107.539 35.022 107.99 34.835V33.625C107.649 33.768 107.308 33.823 106.967 33.823ZM111.772 35.11C113.664 35.11 114.94 33.878 114.94 32.03C114.94 30.193 113.664 28.961 111.772 28.961C109.869 28.961 108.593 30.193 108.593 32.03C108.593 33.878 109.869 35.11 111.772 35.11ZM111.772 33.823C110.793 33.823 110.144 33.108 110.144 32.03C110.144 30.952 110.793 30.237 111.772 30.237C112.74 30.237 113.389 30.952 113.389 32.03C113.389 33.108 112.74 33.823 111.772 33.823ZM117.583 29.863L117.561 29.071H116.12V35H117.616V31.821C117.616 30.93 118.43 30.336 119.662 30.336L119.761 28.961C118.804 28.961 118.056 29.28 117.583 29.863ZM125.93 31.942C125.93 30.149 124.742 28.961 122.971 28.961C121.189 28.961 120.012 30.204 120.012 32.074C120.012 33.9 121.222 35.11 123.037 35.11C124.159 35.11 125.094 34.604 125.622 33.812L124.467 33.229C124.115 33.658 123.62 33.933 123.015 33.933C122.146 33.933 121.706 33.405 121.596 32.569H125.886C125.908 32.393 125.93 32.151 125.93 31.942ZM122.971 30.138C123.774 30.138 124.247 30.655 124.357 31.557H121.596C121.717 30.655 122.179 30.138 122.971 30.138Z" fill="#002444"/>
<path d="M72.176 19.3H70.921V23H72.176C73.256 23 73.971 22.26 73.971 21.16C73.971 20.04 73.256 19.3 72.176 19.3ZM72.146 22.685H71.301V19.615H72.146C73.006 19.615 73.576 20.23 73.576 21.16C73.576 22.07 73.006 22.685 72.146 22.685ZM76.3494 23.05C77.4544 23.05 78.1944 22.29 78.1944 21.15C78.1944 20.01 77.4544 19.25 76.3494 19.25C75.2394 19.25 74.4944 20.01 74.4944 21.15C74.4944 22.29 75.2394 23.05 76.3494 23.05ZM76.3494 22.735C75.4744 22.735 74.8944 22.1 74.8944 21.15C74.8944 20.2 75.4744 19.565 76.3494 19.565C77.2144 19.565 77.7994 20.2 77.7994 21.15C77.7994 22.1 77.2144 22.735 76.3494 22.735ZM83.4499 19.3L82.3399 22.49L81.3249 19.3H80.9599L79.9449 22.49L78.8299 19.3H78.4249L79.7499 23H80.1049L81.1399 19.855L82.1749 23H82.5349L83.8549 19.3H83.4499ZM84.4025 23H84.7825L84.7775 19.96L87.3475 23H87.5925V19.3H87.2125L87.2175 22.34L84.6475 19.3H84.4025V23ZM88.9817 22.685V19.3H88.6017V23H90.7317V22.685H88.9817ZM92.7214 23.05C93.8264 23.05 94.5664 22.29 94.5664 21.15C94.5664 20.01 93.8264 19.25 92.7214 19.25C91.6114 19.25 90.8664 20.01 90.8664 21.15C90.8664 22.29 91.6114 23.05 92.7214 23.05ZM92.7214 22.735C91.8464 22.735 91.2664 22.1 91.2664 21.15C91.2664 20.2 91.8464 19.565 92.7214 19.565C93.5864 19.565 94.1714 20.2 94.1714 21.15C94.1714 22.1 93.5864 22.735 92.7214 22.735ZM97.9424 23H98.3474L96.7274 19.3H96.3674L94.7474 23H95.1524L95.5674 22.035H97.5274L97.9424 23ZM95.7074 21.715L96.5524 19.76L97.3924 21.715H95.7074ZM100.12 19.3H98.8654V23H100.12C101.2 23 101.915 22.26 101.915 21.16C101.915 20.04 101.2 19.3 100.12 19.3ZM100.09 22.685H99.2454V19.615H100.09C100.95 19.615 101.52 20.23 101.52 21.16C101.52 22.07 100.95 22.685 100.09 22.685ZM105.617 23.05C106.722 23.05 107.462 22.29 107.462 21.15C107.462 20.01 106.722 19.25 105.617 19.25C104.507 19.25 103.762 20.01 103.762 21.15C103.762 22.29 104.507 23.05 105.617 23.05ZM105.617 22.735C104.742 22.735 104.162 22.1 104.162 21.15C104.162 20.2 104.742 19.565 105.617 19.565C106.482 19.565 107.067 20.2 107.067 21.15C107.067 22.1 106.482 22.735 105.617 22.735ZM108.226 23H108.606L108.601 19.96L111.171 23H111.416V19.3H111.036L111.041 22.34L108.471 19.3H108.226V23ZM115.927 19.3H113.162V19.615H114.357V23H114.737V19.615H115.927V19.3ZM119.162 19.3V20.96H116.877V19.3H116.497V23H116.877V21.28H119.162V23H119.542V19.3H119.162ZM120.93 22.685V21.27H122.705V20.955H120.93V19.615H122.83V19.3H120.55V23H122.875V22.685H120.93Z" fill="#002444"/>
<path d="M43.0032 28.387C42.9607 26.5936 43.3389 24.8151 44.1077 23.1943C44.6309 22.1397 45.4281 21.2454 46.4159 20.605C47.4037 19.9646 48.5455 19.6017 49.7218 19.5544C50.365 19.5221 51.008 19.6229 51.6105 19.8506C52.4125 20.1281 53.2093 20.4201 54.0092 20.6996C54.4886 20.8406 55.0039 20.7921 55.4485 20.564C56.5006 20.085 57.615 19.7567 58.7587 19.5889C59.8094 19.442 60.8799 19.5469 61.882 19.8949C62.8842 20.2428 63.7894 20.8239 64.523 21.5902C64.6554 21.7227 64.7722 21.8708 64.9047 22.0074C65.082 22.1847 65.0893 22.3036 64.8421 22.4517C64.1016 22.8941 63.4768 23.5061 63.0191 24.2372C62.4645 25.0736 62.1579 26.0498 62.1347 27.0531C62.0552 27.9688 62.1616 28.8911 62.4476 29.7647C63.0485 31.1663 64.1176 32.3158 65.472 33.0165C65.8517 33.2345 65.8579 33.2335 65.7004 33.6267C65.0281 35.4228 64.0709 37.099 62.8658 38.591C62.3188 39.2684 61.6415 39.8291 60.8738 40.2399C60.3417 40.5078 59.7529 40.6436 59.1572 40.6356C58.5616 40.6276 57.9766 40.4761 57.4519 40.194C56.7237 39.8247 55.9241 39.6177 55.1081 39.5871C54.2922 39.5565 53.4793 39.703 52.7254 40.0167C52.0246 40.3356 51.275 40.5341 50.5081 40.6038C50.1291 40.6439 49.7459 40.6063 49.3819 40.4933C49.0179 40.3803 48.6808 40.1944 48.391 39.9468C45.6747 37.5276 43.8567 34.2607 43.2327 30.6773C43.1801 30.4264 43.1404 30.173 43.1138 29.918C43.0679 29.3569 43.0335 28.7969 43.0032 28.387Z" fill="#002444"/>
<path d="M60.0223 13.2512C59.956 14.8616 59.3528 16.4036 58.3088 17.6315C57.8263 18.1492 57.2424 18.5619 56.5933 18.8438C55.9443 19.1257 55.2441 19.2708 54.5365 19.2699C54.3081 19.2793 54.3039 19.1354 54.3123 18.98C54.3462 17.6294 54.8017 16.3232 55.6149 15.2442C56.6531 13.9687 58.1193 13.1137 59.7407 12.8382C60.1693 12.7444 59.9576 13.0885 60.0223 13.2512Z" fill="#002444"/>
</svg>
