<svg width="178" height="72" viewBox="0 0 178 72" fill="none" xmlns="http://www.w3.org/2000/svg">
<path d="M46.5379 41.5818C43.4535 44.6819 39.521 46.7949 35.2383 47.6532C30.9555 48.5115 26.5151 48.0766 22.479 46.4034C18.4429 44.7303 14.9927 41.8941 12.5652 38.254C10.1376 34.614 8.8418 30.3336 8.8418 25.9548C8.8418 21.576 10.1376 17.2957 12.5652 13.6556C14.9927 10.0155 18.4429 7.17937 22.479 5.50622C26.5151 3.83306 30.9555 3.3981 35.2383 4.25641C39.521 5.11471 43.4535 7.22768 46.5379 10.3278L31.1871 19.2881V32.6187L46.5379 41.5818Z" fill="white"/>
<path d="M69.0688 3.83863V48.0686C69.0687 48.7425 68.8914 49.4044 68.5548 49.9877C68.2182 50.5709 67.7341 51.0549 67.1514 51.3908C66.5688 51.7267 65.9081 51.9026 65.236 51.9009C64.5638 51.8991 63.9041 51.7198 63.3231 51.3809L46.5381 41.582C50.6644 37.4335 52.9816 31.8138 52.9816 25.955C52.9816 20.0963 50.6644 14.4766 46.5381 10.3281L63.3231 0.526379C63.9041 0.187469 64.5638 0.00810179 65.236 0.00636046C65.9081 0.00461913 66.5688 0.180565 67.1514 0.516461C67.7341 0.852357 68.2182 1.33633 68.5548 1.91959C68.8914 2.50284 69.0687 3.16477 69.0688 3.83863Z" fill="#00CEDE"/>
<path d="M31.1869 14.5435H31.1841C24.8981 14.5435 19.8022 19.6525 19.8022 25.9548V25.9576C19.8022 32.26 24.8981 37.369 31.1841 37.369H31.1869C37.4729 37.369 42.5687 32.26 42.5687 25.9576V25.9548C42.5687 19.6525 37.4729 14.5435 31.1869 14.5435Z" fill="#00CEDE"/>
<path d="M88.8281 33.8217C88.0576 33.8369 87.2923 33.692 86.5799 33.3961C85.8676 33.1002 85.2236 32.6597 84.6882 32.102C83.6055 30.9794 83 29.4768 83 27.9126C83 26.3485 83.6055 24.8458 84.6882 23.7233C85.2235 23.1655 85.8675 22.7248 86.5798 22.4288C87.2922 22.1329 88.0576 21.9881 88.8281 22.0036C89.888 21.9922 90.9295 22.2819 91.8331 22.8394C92.7183 23.3798 93.4404 24.1527 93.9219 25.075L91.7681 26.1929C91.4778 25.671 91.0556 25.2355 90.5443 24.9306C90.0236 24.6067 89.4231 24.4363 88.811 24.4387C88.3643 24.431 87.9208 24.5169 87.5088 24.691C87.0968 24.8651 86.7253 25.1236 86.418 25.4499C85.7902 26.1115 85.4399 26.9911 85.4399 27.9058C85.4399 28.8204 85.7902 29.7 86.418 30.3616C86.7253 30.6879 87.0968 30.9464 87.5088 31.1205C87.9208 31.2946 88.3643 31.3805 88.811 31.3728C89.4303 31.3792 90.0389 31.2112 90.5682 30.8878C91.0868 30.5745 91.5083 30.1219 91.7852 29.5808L93.9561 30.6986C93.4749 31.6326 92.7491 32.4164 91.857 32.9653C90.9494 33.5359 89.8983 33.8331 88.8281 33.8217Z" fill="white"/>
<path d="M94.2158 33.6565L98.8207 22.1548H101.354L106.007 33.6565H103.361L102.626 31.7682H97.5797L96.8618 33.6565H94.2158ZM98.3489 29.567H101.86L100.113 24.9305H100.092L98.3489 29.567Z" fill="white"/>
<path d="M116.228 33.6566H113.599L111.641 29.6323H109.5V33.6566H107.131V22.1548H112.095C113.101 22.1319 114.078 22.4932 114.83 23.1661C115.209 23.5088 115.507 23.932 115.703 24.4048C115.9 24.8777 115.989 25.3886 115.965 25.9005C115.988 26.6308 115.789 27.3509 115.394 27.9642C115.02 28.5345 114.494 28.9874 113.876 29.2712L116.228 33.6566ZM109.5 24.277V27.5618H111.852C112.306 27.5783 112.748 27.4153 113.083 27.1077C113.24 26.957 113.363 26.7745 113.444 26.5723C113.526 26.3701 113.563 26.1528 113.555 25.9349C113.564 25.7128 113.526 25.4913 113.445 25.2847C113.364 25.078 113.24 24.8906 113.083 24.7345C112.917 24.5792 112.721 24.4587 112.508 24.3802C112.295 24.3017 112.069 24.2666 111.842 24.277H109.5Z" fill="white"/>
<path d="M117.551 33.6564V22.1547H121.975C122.959 22.1434 123.932 22.3649 124.816 22.8013C125.69 23.2474 126.421 23.9345 126.922 24.7825C127.481 25.7242 127.764 26.8056 127.739 27.9021C127.749 28.7445 127.589 29.5802 127.267 30.358C126.981 31.0524 126.549 31.6757 125.999 32.1843C125.464 32.6648 124.843 33.0384 124.17 33.285C123.467 33.5429 122.723 33.6733 121.975 33.6702L117.551 33.6564ZM119.944 31.2901H121.869C122.778 31.3293 123.669 31.0237 124.365 30.4336C125.01 29.8604 125.333 29.0142 125.335 27.8953C125.335 26.7809 125.011 25.9347 124.365 25.3672C123.669 24.7792 122.78 24.4737 121.872 24.5108L119.948 24.528L119.944 31.2901Z" fill="white"/>
<path d="M131.643 33.6565V24.277H127.934V22.1548H137.748V24.277H134.043V33.6565H131.643Z" fill="white"/>
<path d="M143.789 33.8217C143.019 33.8369 142.253 33.692 141.541 33.3961C140.829 33.1002 140.185 32.6596 139.649 32.1019C138.566 30.9794 137.961 29.4768 137.961 27.9126C137.961 26.3485 138.566 24.8458 139.649 23.7233C140.191 23.177 140.835 22.7436 141.544 22.4479C142.253 22.1522 143.013 22 143.781 22C144.548 22 145.308 22.1522 146.017 22.4479C146.726 22.7436 147.37 23.177 147.912 23.7233C148.997 24.8445 149.604 26.3477 149.604 27.9126C149.604 29.4776 148.997 30.9807 147.912 32.1019C147.38 32.6592 146.739 33.0996 146.029 33.3956C145.32 33.6915 144.557 33.8366 143.789 33.8217ZM143.789 31.4553C144.245 31.4648 144.698 31.3779 145.118 31.2001C145.539 31.0224 145.918 30.7578 146.23 30.4235C146.865 29.7394 147.218 28.8383 147.218 27.9023C147.218 26.9663 146.865 26.0652 146.23 25.3811C145.912 25.0572 145.533 24.8 145.116 24.6244C144.698 24.4489 144.25 24.3585 143.798 24.3585C143.345 24.3585 142.897 24.4489 142.48 24.6244C142.062 24.8 141.683 25.0572 141.365 25.3811C140.73 26.0652 140.377 26.9663 140.377 27.9023C140.377 28.8383 140.73 29.7394 141.365 30.4235C141.672 30.7558 142.045 31.0201 142.46 31.1996C142.874 31.379 143.321 31.4696 143.772 31.4656L143.789 31.4553Z" fill="white"/>
<path d="M151.105 33.6565V22.1548H153.799L158.78 29.7802V22.1548H161.173V33.6565H158.462L153.498 26.0483V33.6565H151.105Z" fill="white"/>
<path d="M163.156 33.6565V22.1548H165.549V33.6565H163.156Z" fill="white"/>
<path d="M172.872 33.8219C172.101 33.8379 171.335 33.6934 170.623 33.3974C169.91 33.1015 169.267 32.6605 168.732 32.1021C167.649 30.9796 167.043 29.4769 167.043 27.9128C167.043 26.3486 167.649 24.846 168.732 23.7234C169.266 23.1649 169.91 22.7238 170.623 22.4278C171.335 22.1318 172.101 21.9874 172.872 22.0037C173.919 21.9966 174.948 22.2794 175.846 22.8211C176.745 23.3628 177.478 24.1426 177.965 25.0752L175.808 26.193C175.518 25.6711 175.096 25.2357 174.584 24.9307C174.064 24.6116 173.464 24.446 172.854 24.4526C172.408 24.4449 171.964 24.5308 171.552 24.7049C171.14 24.879 170.769 25.1375 170.461 25.4638C169.832 26.1246 169.481 27.0045 169.481 27.9196C169.481 28.8348 169.832 29.7147 170.461 30.3755C170.769 30.7018 171.14 30.9603 171.552 31.1344C171.964 31.3085 172.408 31.3944 172.854 31.3867C173.473 31.3935 174.08 31.2255 174.608 30.9017C175.128 30.5894 175.549 30.1365 175.825 29.5947L178 30.7125C177.517 31.6458 176.792 32.4294 175.9 32.9792C174.991 33.545 173.94 33.8374 172.872 33.8219Z" fill="white"/>
</svg>
