<svg width="169" height="57" viewBox="0 0 169 57" fill="none" xmlns="http://www.w3.org/2000/svg">
<rect width="168.828" height="56.2761" rx="10" fill="#2D2D2D"/>
<path d="M85.4368 29.2709C84.7153 29.2674 84.0091 29.4782 83.4075 29.8765C82.806 30.2748 82.3362 30.8427 82.0577 31.5083C81.7793 32.1739 81.7046 32.9071 81.8432 33.6151C81.9819 34.3231 82.3275 34.9741 82.8365 35.4854C83.3454 35.9968 83.9947 36.3456 84.702 36.4876C85.4094 36.6297 86.143 36.5585 86.8099 36.2832C87.4767 36.0079 88.0469 35.5409 88.4481 34.9413C88.8493 34.3416 89.0634 33.6364 89.0634 32.9149C89.0711 32.4357 88.9826 31.9599 88.8033 31.5155C88.624 31.071 88.3574 30.667 88.0194 30.3273C87.6813 29.9876 87.2786 29.7191 86.835 29.5377C86.3915 29.3562 85.916 29.2655 85.4368 29.2709ZM85.4368 35.125C84.992 35.1612 84.5466 35.0624 84.1588 34.8414C83.7711 34.6205 83.459 34.2877 83.2634 33.8865C83.0678 33.4854 82.9978 33.0346 83.0625 32.593C83.1272 32.1514 83.3236 31.7396 83.626 31.4115C83.9285 31.0833 84.3229 30.854 84.7578 30.7536C85.1926 30.6532 85.6476 30.6863 86.0634 30.8486C86.4791 31.0109 86.8362 31.2948 87.088 31.6633C87.3397 32.0318 87.4745 32.4677 87.4746 32.914C87.4888 33.1936 87.447 33.4733 87.3518 33.7367C87.2566 34.0001 87.1098 34.2418 86.9201 34.4478C86.7303 34.6537 86.5014 34.8198 86.2467 34.9362C85.992 35.0527 85.7167 35.1172 85.4368 35.1259V35.125ZM77.5275 29.2709C76.806 29.2674 76.0998 29.4782 75.4982 29.8765C74.8967 30.2748 74.4269 30.8427 74.1484 31.5083C73.8699 32.1739 73.7953 32.9071 73.9339 33.6151C74.0725 34.3231 74.4182 34.9741 74.9272 35.4854C75.4361 35.9968 76.0854 36.3456 76.7927 36.4876C77.5001 36.6297 78.2336 36.5585 78.9005 36.2832C79.5674 36.0079 80.1376 35.5409 80.5388 34.9413C80.9399 34.3416 81.1541 33.6364 81.1541 32.9149C81.1627 32.4356 81.0749 31.9594 80.896 31.5146C80.7171 31.0698 80.4506 30.6655 80.1125 30.3256C79.7743 29.9857 79.3713 29.7173 78.9275 29.5361C78.4836 29.3549 78.0078 29.2647 77.5285 29.2709H77.5275ZM77.5275 35.125C77.0827 35.1612 76.6373 35.0624 76.2495 34.8414C75.8617 34.6205 75.5497 34.2877 75.3541 33.8865C75.1585 33.4854 75.0885 33.0346 75.1532 32.593C75.2179 32.1514 75.4143 31.7396 75.7167 31.4115C76.0192 31.0833 76.4136 30.854 76.8484 30.7536C77.2833 30.6532 77.7383 30.6863 78.154 30.8486C78.5698 31.0109 78.9269 31.2948 79.1786 31.6633C79.4304 32.0318 79.5652 32.4677 79.5653 32.914C79.5794 33.1936 79.5377 33.4732 79.4426 33.7365C79.3474 33.9998 79.2007 34.2415 79.0111 34.4474C78.8214 34.6534 78.5926 34.8194 78.3381 34.9359C78.0835 35.0525 77.8083 35.117 77.5285 35.1259L77.5275 35.125ZM68.1329 30.3933V31.9299H71.7943C71.7446 32.6502 71.4523 33.3324 70.9651 33.8651C70.5981 34.2403 70.1562 34.5341 69.6683 34.7275C69.1804 34.9208 68.6573 35.0095 68.1329 34.9876C67.0422 34.9876 65.9962 34.5543 65.225 33.7831C64.4538 33.0119 64.0205 31.9659 64.0205 30.8752C64.0205 29.7845 64.4538 28.7385 65.225 27.9673C65.9962 27.1961 67.0422 26.7628 68.1329 26.7628C68.6436 26.7555 69.1508 26.8494 69.6251 27.0391C70.0994 27.2287 70.5315 27.5104 70.8964 27.8678L71.984 26.7802C71.4782 26.2773 70.8769 25.8807 70.2155 25.6139C69.5541 25.347 68.846 25.2152 68.1329 25.2262C66.6352 25.2262 65.1988 25.8212 64.1398 26.8802C63.0808 27.9392 62.4858 29.3756 62.4858 30.8733C62.4858 32.3709 63.0808 33.8073 64.1398 34.8663C65.1988 35.9253 66.6352 36.5203 68.1329 36.5203C68.8275 36.5566 69.522 36.4475 70.172 36.1998C70.8219 35.9521 71.413 35.5714 71.9073 35.082C72.4015 34.5927 72.7881 34.0055 73.0423 33.358C73.2964 32.7106 73.4125 32.0172 73.3832 31.3222C73.3842 30.9977 73.3554 30.6738 73.2971 30.3546L68.1329 30.3933ZM106.593 31.5845C106.378 30.9278 105.965 30.3534 105.412 29.9392C104.859 29.5251 104.192 29.2914 103.501 29.2699C103.035 29.2739 102.574 29.3728 102.147 29.5605C101.72 29.7481 101.336 30.0207 101.018 30.3616C100.7 30.7025 100.454 31.1045 100.296 31.5433C100.138 31.9821 100.071 32.4484 100.099 32.914C100.087 33.6896 100.327 34.4483 100.783 35.0762C101.238 35.7041 101.885 36.1676 102.626 36.3971C103.367 36.6266 104.162 36.6098 104.893 36.3492C105.624 36.0887 106.25 35.5984 106.679 34.9518L105.453 34.1225C105.269 34.4296 105.008 34.6834 104.696 34.859C104.385 35.0346 104.032 35.126 103.674 35.124C103.306 35.1404 102.941 35.0432 102.63 34.8456C102.318 34.6479 102.075 34.3594 101.933 34.019L106.771 31.9986L106.593 31.5845ZM101.671 32.8104C101.654 32.5469 101.689 32.2827 101.775 32.0329C101.86 31.7831 101.994 31.5526 102.169 31.3548C102.344 31.157 102.556 30.9957 102.794 30.8802C103.031 30.7647 103.289 30.6972 103.553 30.6817C103.829 30.6627 104.104 30.7261 104.344 30.8639C104.584 31.0018 104.777 31.2078 104.899 31.4558L101.671 32.8104ZM97.7517 36.3345H99.3405V25.6442H97.7517V36.3345ZM95.1391 30.0827H95.0869C94.8471 29.819 94.5533 29.61 94.2256 29.4699C93.8978 29.3298 93.5438 29.2619 93.1874 29.2709C92.2557 29.319 91.378 29.7229 90.7355 30.3994C90.0931 31.0759 89.7349 31.9733 89.7349 32.9062C89.7349 33.8392 90.0931 34.7365 90.7355 35.413C91.378 36.0895 92.2557 36.4935 93.1874 36.5416C93.5456 36.5517 93.9015 36.4826 94.2298 36.3393C94.5582 36.1959 94.8508 35.9818 95.0869 35.7123H95.1391V36.23C95.1391 37.6292 94.397 38.3713 93.2039 38.3713C92.8071 38.3599 92.4228 38.2306 92.0998 37.9998C91.7769 37.769 91.5299 37.4473 91.3906 37.0757L90.0088 37.663C90.2652 38.3002 90.7062 38.8462 91.2752 39.2308C91.8442 39.6155 92.5151 39.8213 93.2019 39.8218C95.0675 39.8218 96.6389 38.7168 96.6389 36.0394V29.4954H95.1391V30.0827ZM93.3258 35.1259C92.7783 35.0733 92.2701 34.8186 91.9003 34.4115C91.5305 34.0044 91.3256 33.4741 91.3256 32.9241C91.3256 32.3741 91.5305 31.8439 91.9003 31.4368C92.2701 31.0297 92.7783 30.775 93.3258 30.7223C93.8601 30.7924 94.3508 31.0544 94.7062 31.4596C95.0616 31.8647 95.2576 32.3852 95.2576 32.9241C95.2576 33.4631 95.0616 33.9836 94.7062 34.3887C94.3508 34.7938 93.8601 35.0558 93.3258 35.1259ZM114.015 25.6433H110.217V36.3345H111.805V32.2763H114.016C114.465 32.298 114.914 32.2283 115.335 32.0715C115.756 31.9146 116.141 31.6738 116.467 31.3638C116.792 31.0537 117.051 30.6808 117.228 30.2677C117.405 29.8545 117.497 29.4097 117.497 28.9603C117.497 28.5108 117.405 28.066 117.228 27.6529C117.051 27.2397 116.792 26.8668 116.467 26.5568C116.141 26.2467 115.756 26.0059 115.335 25.8491C114.914 25.6922 114.465 25.6225 114.016 25.6442L114.015 25.6433ZM114.068 30.79H111.805V27.1295H114.068C114.557 27.1274 115.028 27.3186 115.377 27.6613C115.726 28.0041 115.926 28.4709 115.933 28.9603C115.92 29.4472 115.719 29.9101 115.371 30.2516C115.024 30.5931 114.558 30.7864 114.071 30.791L114.068 30.79ZM123.86 29.2535C123.281 29.2189 122.704 29.3567 122.203 29.6495C121.702 29.9422 121.299 30.3768 121.045 30.8984L122.444 31.4858C122.586 31.2306 122.798 31.0218 123.056 30.8845C123.313 30.7471 123.605 30.6871 123.896 30.7117C124.301 30.6734 124.705 30.7973 125.019 31.0563C125.333 31.3154 125.531 31.6883 125.571 32.0934V32.197C125.062 31.9206 124.492 31.7781 123.913 31.7828C122.393 31.7828 120.857 32.6295 120.857 34.1835C120.87 34.5118 120.948 34.8341 121.088 35.1313C121.229 35.4285 121.427 35.6946 121.672 35.9136C121.917 36.1327 122.203 36.3003 122.514 36.4065C122.825 36.5127 123.154 36.5554 123.482 36.5319C123.882 36.5564 124.282 36.4713 124.638 36.2856C124.994 36.1 125.293 35.8208 125.502 35.4782H125.554V36.3074H127.091V32.2066C127.094 31.794 127.011 31.3853 126.846 31.007C126.681 30.6288 126.439 30.2894 126.134 30.011C125.83 29.7325 125.47 29.5213 125.079 29.391C124.687 29.2606 124.273 29.2141 123.862 29.2544L123.86 29.2535ZM123.666 35.1076C123.149 35.1076 122.423 34.8482 122.423 34.2096C122.423 33.3804 123.321 33.0698 124.098 33.0698C124.606 33.0591 125.107 33.1844 125.549 33.4326C125.492 33.8918 125.271 34.3147 124.925 34.6229C124.58 34.9311 124.135 35.1036 123.672 35.1085L123.666 35.1076ZM132.647 29.4954L130.834 34.1235H130.781L128.909 29.4954H127.199L130.031 35.9716L128.425 39.5809H130.083L134.437 29.4954H132.647ZM118.382 36.3345H119.971V25.6442H118.382V36.3345Z" fill="white"/>
<path d="M34.4095 28.4182V18.163C34.4095 17.9193 34.314 17.5706 34.5471 17.4732C34.7573 17.3834 34.9101 17.7149 35.0697 17.8744C38.4735 21.2693 41.8737 24.667 45.2704 28.0675C45.6631 28.4602 45.6631 28.4602 45.2704 28.8538C41.8234 32.2958 38.376 35.7394 34.9283 39.1845C34.8156 39.2972 34.7124 39.5323 34.5404 39.453C34.3684 39.3737 34.4095 39.1291 34.4095 38.9476C34.4095 35.4381 34.4095 31.9283 34.4095 28.4182Z" fill="white"/>
<path d="M49.8856 24.1526C49.8374 24.224 49.7847 24.2923 49.7279 24.357C48.7725 25.3258 47.8066 26.2888 46.8551 27.2652C46.6563 27.4697 46.5254 27.4344 46.342 27.25C42.8249 23.7246 39.3065 20.202 35.7868 16.6823C35.7085 16.604 35.5585 16.5343 35.6215 16.4015C35.6846 16.2687 35.8336 16.3317 35.9445 16.3365C36.2479 16.3536 36.5428 16.4433 36.8043 16.5983C41.0717 19.0243 45.3392 21.4529 49.6066 23.8841C49.7174 23.9443 49.856 23.9777 49.8856 24.1526Z" fill="white"/>
<path d="M35.893 40.5901C35.7889 40.5662 35.6513 40.6321 35.6121 40.4993C35.5787 40.3837 35.701 40.3197 35.7698 40.249C36.6468 39.3681 37.5255 38.4885 38.4057 37.6102L46.2332 29.7827C46.6068 29.4091 46.6078 29.4091 46.989 29.7941C47.8736 30.6858 48.7571 31.5775 49.6392 32.4692C49.9746 32.8093 49.9765 32.817 49.5704 33.0482C45.3068 35.4762 41.0429 37.9029 36.7787 40.3283C36.5076 40.4828 36.2045 40.5724 35.893 40.5901Z" fill="white"/>
<path d="M56.2031 28.4774C56.175 28.7525 56.0779 29.0162 55.921 29.244C55.764 29.4717 55.5522 29.6563 55.305 29.7805C54.3907 30.3156 53.4669 30.8315 52.5468 31.3598C52.1952 31.5614 51.8398 31.7525 51.4959 31.9646C51.4588 31.9959 51.4159 32.0194 51.3696 32.0338C51.3233 32.0483 51.2746 32.0533 51.2263 32.0485C51.178 32.0438 51.1312 32.0295 51.0885 32.0064C51.0459 31.9832 51.0083 31.9518 50.9781 31.9139C49.9099 30.8356 48.8357 29.7627 47.7555 28.6952C47.5644 28.5099 47.594 28.3809 47.7689 28.2108C48.8517 27.1484 49.9309 26.0816 51.0067 25.0102C51.0641 24.9415 51.1459 24.8976 51.235 24.8878C51.324 24.878 51.4134 24.9031 51.4844 24.9577C52.7541 25.6876 54.0334 26.4023 55.3003 27.137C55.5555 27.261 55.7734 27.4504 55.932 27.6857C56.0905 27.9211 56.184 28.1942 56.2031 28.4774Z" fill="white"/>
<path d="M65.8955 20.6318H66.3005L64.6805 16.9318H64.3205L62.7005 20.6318H63.1055L63.5205 19.6668H65.4805L65.8955 20.6318ZM63.6605 19.3468L64.5055 17.3918L65.3455 19.3468H63.6605ZM66.8185 20.6318H67.1985L67.1935 17.5918L69.7635 20.6318H70.0085V16.9318H69.6285L69.6335 19.9718L67.0635 16.9318H66.8185V20.6318ZM72.2727 16.9318H71.0177V20.6318H72.2727C73.3527 20.6318 74.0677 19.8918 74.0677 18.7918C74.0677 17.6718 73.3527 16.9318 72.2727 16.9318ZM72.2427 20.3168H71.3977V17.2468H72.2427C73.1027 17.2468 73.6727 17.8618 73.6727 18.7918C73.6727 19.7018 73.1027 20.3168 72.2427 20.3168ZM77.7011 20.6318L76.6511 19.0568C77.1411 18.9118 77.4411 18.5318 77.4411 18.0268C77.4411 17.3668 76.9511 16.9318 76.2011 16.9318H74.8361V20.6318H75.2161V19.1218H76.1811H76.2661L77.2511 20.6318H77.7011ZM75.2161 17.2468H76.1511C76.6911 17.2468 77.0461 17.5568 77.0461 18.0268C77.0461 18.4918 76.6861 18.8068 76.1511 18.8068H75.2161V17.2468ZM79.8982 20.6818C81.0032 20.6818 81.7432 19.9218 81.7432 18.7818C81.7432 17.6418 81.0032 16.8818 79.8982 16.8818C78.7882 16.8818 78.0432 17.6418 78.0432 18.7818C78.0432 19.9218 78.7882 20.6818 79.8982 20.6818ZM79.8982 20.3668C79.0232 20.3668 78.4432 19.7318 78.4432 18.7818C78.4432 17.8318 79.0232 17.1968 79.8982 17.1968C80.7632 17.1968 81.3482 17.8318 81.3482 18.7818C81.3482 19.7318 80.7632 20.3668 79.8982 20.3668ZM82.507 20.6318H82.887V16.9318H82.507V20.6318ZM85.1536 16.9318H83.8986V20.6318H85.1536C86.2336 20.6318 86.9486 19.8918 86.9486 18.7918C86.9486 17.6718 86.2336 16.9318 85.1536 16.9318ZM85.1236 20.3168H84.2786V17.2468H85.1236C85.9836 17.2468 86.5536 17.8618 86.5536 18.7918C86.5536 19.7018 85.9836 20.3168 85.1236 20.3168ZM91.5791 20.6318H91.9841L90.3641 16.9318H90.0041L88.3841 20.6318H88.7891L89.2041 19.6668H91.1641L91.5791 20.6318ZM89.3441 19.3468L90.1891 17.3918L91.0291 19.3468H89.3441ZM93.8471 16.9318H92.5021V20.6318H92.8821V19.2118H93.8471C94.5721 19.2118 95.0571 18.7518 95.0571 18.0568C95.0571 17.3818 94.5771 16.9318 93.8471 16.9318ZM93.7971 18.8968H92.8821V17.2468H93.7971C94.3171 17.2468 94.6621 17.5768 94.6621 18.0718C94.6621 18.5668 94.3221 18.8968 93.7971 18.8968ZM97.0795 16.9318H95.7345V20.6318H96.1145V19.2118H97.0795C97.8045 19.2118 98.2895 18.7518 98.2895 18.0568C98.2895 17.3818 97.8095 16.9318 97.0795 16.9318ZM97.0295 18.8968H96.1145V17.2468H97.0295C97.5495 17.2468 97.8945 17.5768 97.8945 18.0718C97.8945 18.5668 97.5545 18.8968 97.0295 18.8968ZM101.768 20.6818C102.873 20.6818 103.613 19.9218 103.613 18.7818C103.613 17.6418 102.873 16.8818 101.768 16.8818C100.658 16.8818 99.9133 17.6418 99.9133 18.7818C99.9133 19.9218 100.658 20.6818 101.768 20.6818ZM101.768 20.3668C100.893 20.3668 100.313 19.7318 100.313 18.7818C100.313 17.8318 100.893 17.1968 101.768 17.1968C102.633 17.1968 103.218 17.8318 103.218 18.7818C103.218 19.7318 102.633 20.3668 101.768 20.3668ZM104.377 20.6318H104.757L104.752 17.5918L107.322 20.6318H107.567V16.9318H107.187L107.192 19.9718L104.622 16.9318H104.377V20.6318Z" fill="white"/>
</svg>
