<svg width="66" height="64" viewBox="0 0 66 64" fill="none" xmlns="http://www.w3.org/2000/svg">
<rect width="66" height="64" rx="20" transform="matrix(-1 0 0 1 66 0)" fill="#03D3E3"/>
<g clip-path="url(#clip0_1_316)">
<path d="M39.0984 31.4476C39.037 31.4376 38.9749 31.433 38.9128 31.4338H28.3306L28.5613 31.3265C28.7869 31.2197 28.9921 31.0744 29.1677 30.8972L32.1352 27.9297C32.526 27.5566 32.5917 26.9564 32.2908 26.5076C31.9407 26.0294 31.2691 25.9256 30.7909 26.2757C30.7522 26.304 30.7155 26.3349 30.681 26.3681L25.3148 31.7343C24.8954 32.1532 24.895 32.8327 25.3139 33.2521C25.3142 33.2524 25.3145 33.2527 25.3148 33.253L30.681 38.6192C31.1007 39.0377 31.7802 39.0368 32.1988 38.6171C32.2317 38.584 32.2625 38.5489 32.2908 38.5118C32.5917 38.0631 32.526 37.4629 32.1352 37.0898L29.1731 34.1169C29.0156 33.9593 28.8346 33.8271 28.6365 33.7252L28.3145 33.5803H38.8537C39.402 33.6007 39.883 33.2177 39.986 32.6788C40.0809 32.0937 39.6835 31.5425 39.0984 31.4476Z" fill="white"/>
</g>
<defs>
<clipPath id="clip0_1_316">
<rect width="15" height="15" fill="white" transform="translate(25 25)"/>
</clipPath>
</defs>
</svg>
