<svg width="178" height="72" viewBox="0 0 178 72" fill="none" xmlns="http://www.w3.org/2000/svg">
<path d="M46.5379 41.5818C43.4535 44.6819 39.521 46.7949 35.2383 47.6532C30.9555 48.5115 26.5151 48.0766 22.479 46.4034C18.4429 44.7303 14.9927 41.8941 12.5652 38.254C10.1376 34.614 8.8418 30.3336 8.8418 25.9548C8.8418 21.576 10.1376 17.2957 12.5652 13.6556C14.9927 10.0155 18.4429 7.17937 22.479 5.50622C26.5151 3.83306 30.9555 3.3981 35.2383 4.25641C39.521 5.11471 43.4535 7.22768 46.5379 10.3278L31.1871 19.2881V32.6187L46.5379 41.5818Z" fill="#002444"/>
<path d="M69.0688 3.83814V48.0681C69.0687 48.742 68.8914 49.4039 68.5548 49.9872C68.2182 50.5704 67.7341 51.0544 67.1514 51.3903C66.5688 51.7262 65.9081 51.9021 65.236 51.9004C64.5638 51.8987 63.9041 51.7193 63.3231 51.3804L46.5381 41.5815C50.6644 37.433 52.9816 31.8133 52.9816 25.9545C52.9816 20.0958 50.6644 14.4761 46.5381 10.3276L63.3231 0.525891C63.9041 0.186981 64.5638 0.00761351 65.236 0.00587218C65.9081 0.00413085 66.5688 0.180077 67.1514 0.515973C67.7341 0.851869 68.2182 1.33584 68.5548 1.9191C68.8914 2.50236 69.0687 3.16428 69.0688 3.83814Z" fill="#00CEDE"/>
<path d="M31.1869 14.543H31.1841C24.8981 14.543 19.8022 19.652 19.8022 25.9543V25.9572C19.8022 32.2595 24.8981 37.3685 31.1841 37.3685H31.1869C37.4729 37.3685 42.5687 32.2595 42.5687 25.9572V25.9543C42.5687 19.652 37.4729 14.543 31.1869 14.543Z" fill="#00CEDE"/>
<path d="M88.8281 33.8212C88.0576 33.8364 87.2923 33.6915 86.5799 33.3956C85.8676 33.0997 85.2236 32.6592 84.6882 32.1015C83.6055 30.9789 83 29.4763 83 27.9121C83 26.348 83.6055 24.8453 84.6882 23.7228C85.2235 23.165 85.8675 22.7243 86.5798 22.4284C87.2922 22.1324 88.0576 21.9877 88.8281 22.0031C89.888 21.9917 90.9295 22.2814 91.8331 22.8389C92.7183 23.3793 93.4404 24.1522 93.9219 25.0745L91.7681 26.1924C91.4778 25.6705 91.0556 25.235 90.5443 24.9301C90.0236 24.6062 89.4231 24.4358 88.811 24.4382C88.3643 24.4305 87.9208 24.5164 87.5088 24.6905C87.0968 24.8646 86.7253 25.1231 86.418 25.4495C85.7902 26.1111 85.4399 26.9906 85.4399 27.9053C85.4399 28.82 85.7902 29.6995 86.418 30.3611C86.7253 30.6874 87.0968 30.9459 87.5088 31.12C87.9208 31.2941 88.3643 31.38 88.811 31.3723C89.4303 31.3787 90.0389 31.2107 90.5682 30.8873C91.0868 30.5741 91.5083 30.1214 91.7852 29.5803L93.9561 30.6982C93.4749 31.6321 92.7491 32.416 91.857 32.9648C90.9494 33.5355 89.8983 33.8327 88.8281 33.8212Z" fill="#002444"/>
<path d="M94.2158 33.657L98.8207 22.1553H101.354L106.007 33.657H103.361L102.626 31.7687H97.5797L96.8618 33.657H94.2158ZM98.3489 29.5674H101.86L100.113 24.931H100.092L98.3489 29.5674Z" fill="#002444"/>
<path d="M116.228 33.6571H113.599L111.64 29.6328H109.5V33.6571H107.131V22.1553H112.095C113.101 22.1324 114.078 22.4937 114.83 23.1665C115.208 23.5093 115.506 23.9324 115.703 24.4053C115.899 24.8782 115.988 25.3891 115.965 25.901C115.988 26.6313 115.789 27.3514 115.394 27.9647C115.02 28.535 114.494 28.9879 113.876 29.2717L116.228 33.6571ZM109.5 24.2775V27.5622H111.852C112.305 27.5788 112.747 27.4158 113.083 27.1082C113.239 26.9575 113.362 26.7749 113.444 26.5728C113.525 26.3706 113.563 26.1533 113.554 25.9354C113.563 25.7133 113.526 25.4918 113.444 25.2851C113.363 25.0785 113.24 24.8911 113.083 24.735C112.916 24.5797 112.721 24.4592 112.508 24.3807C112.295 24.3021 112.068 24.2671 111.842 24.2775H109.5Z" fill="#002444"/>
<path d="M117.551 33.6564V22.1547H121.974C122.959 22.1434 123.932 22.3649 124.815 22.8013C125.69 23.2474 126.42 23.9345 126.921 24.7825C127.48 25.7242 127.763 26.8056 127.738 27.9021C127.749 28.7445 127.588 29.5802 127.266 30.358C126.981 31.0524 126.548 31.6757 125.998 32.1843C125.464 32.6648 124.843 33.0384 124.169 33.285C123.466 33.5429 122.723 33.6733 121.974 33.6702L117.551 33.6564ZM119.944 31.2901H121.868C122.778 31.3293 123.668 31.0237 124.364 30.4336C125.009 29.8604 125.333 29.0142 125.335 27.8953C125.335 26.7809 125.01 25.9347 124.364 25.3672C123.669 24.7792 122.78 24.4737 121.872 24.5108L119.947 24.528L119.944 31.2901Z" fill="#002444"/>
<path d="M131.643 33.657V24.2775H127.934V22.1553H137.748V24.2775H134.043V33.657H131.643Z" fill="#002444"/>
<path d="M143.789 33.8217C143.019 33.8369 142.253 33.692 141.541 33.3961C140.829 33.1002 140.185 32.6596 139.649 32.1019C138.566 30.9794 137.961 29.4768 137.961 27.9126C137.961 26.3485 138.566 24.8458 139.649 23.7233C140.191 23.177 140.835 22.7436 141.544 22.4479C142.253 22.1522 143.013 22 143.781 22C144.548 22 145.308 22.1522 146.017 22.4479C146.726 22.7436 147.37 23.177 147.912 23.7233C148.997 24.8445 149.604 26.3477 149.604 27.9126C149.604 29.4776 148.997 30.9807 147.912 32.1019C147.38 32.6592 146.739 33.0996 146.029 33.3956C145.32 33.6915 144.557 33.8366 143.789 33.8217ZM143.789 31.4553C144.245 31.4648 144.698 31.3779 145.118 31.2001C145.539 31.0224 145.918 30.7578 146.23 30.4235C146.865 29.7394 147.218 28.8383 147.218 27.9023C147.218 26.9663 146.865 26.0652 146.23 25.3811C145.912 25.0572 145.533 24.8 145.116 24.6244C144.698 24.4489 144.25 24.3585 143.798 24.3585C143.345 24.3585 142.897 24.4489 142.48 24.6244C142.062 24.8 141.683 25.0572 141.365 25.3811C140.73 26.0652 140.377 26.9663 140.377 27.9023C140.377 28.8383 140.73 29.7394 141.365 30.4235C141.672 30.7558 142.045 31.0201 142.46 31.1996C142.874 31.379 143.321 31.4696 143.772 31.4656L143.789 31.4553Z" fill="#002444"/>
<path d="M151.105 33.657V22.1553H153.799L158.78 29.7807V22.1553H161.173V33.657H158.462L153.499 26.0488V33.657H151.105Z" fill="#002444"/>
<path d="M163.156 33.657V22.1553H165.549V33.657H163.156Z" fill="#002444"/>
<path d="M172.871 33.8214C172.1 33.8374 171.335 33.6929 170.622 33.3969C169.91 33.101 169.266 32.66 168.731 32.1016C167.648 30.9791 167.043 29.4764 167.043 27.9123C167.043 26.3481 167.648 24.8455 168.731 23.7229C169.266 23.1644 169.91 22.7233 170.622 22.4273C171.335 22.1314 172.1 21.9869 172.871 22.0032C173.918 21.9962 174.947 22.2789 175.846 22.8206C176.744 23.3623 177.477 24.1421 177.965 25.0747L175.808 26.1925C175.517 25.6706 175.095 25.2352 174.584 24.9302C174.063 24.6111 173.464 24.4455 172.854 24.4521C172.407 24.4444 171.964 24.5303 171.552 24.7044C171.14 24.8785 170.768 25.137 170.461 25.4633C169.832 26.1241 169.48 27.004 169.48 27.9192C169.48 28.8343 169.832 29.7142 170.461 30.375C170.768 30.7013 171.14 30.9598 171.552 31.1339C171.964 31.308 172.407 31.3939 172.854 31.3862C173.472 31.3931 174.08 31.225 174.608 30.9012C175.127 30.589 175.549 30.1361 175.825 29.5942L177.999 30.712C177.517 31.6453 176.791 32.4289 175.9 32.9787C174.991 33.5445 173.94 33.8369 172.871 33.8214Z" fill="#002444"/>
</svg>
