<svg width="170" height="57" viewBox="0 0 170 57" fill="none" xmlns="http://www.w3.org/2000/svg">
<rect x="0.321777" width="168.828" height="56.2761" rx="10" fill="#C0FAFF"/>
<path d="M71.0738 35.11C73.6258 35.11 75.3418 33.438 75.3418 30.93C75.3418 28.422 73.6258 26.75 71.0738 26.75C68.5108 26.75 66.7948 28.422 66.7948 30.93C66.7948 33.438 68.5108 35.11 71.0738 35.11ZM71.0738 33.823C69.4788 33.823 68.4008 32.668 68.4008 30.93C68.4008 29.192 69.4788 28.037 71.0738 28.037C72.6688 28.037 73.7358 29.192 73.7358 30.93C73.7358 32.668 72.6688 33.823 71.0738 33.823ZM79.9759 28.961C79.1839 28.961 78.4909 29.258 78.0399 29.819L78.0179 29.071H76.5769V35H78.0729V31.513C78.0729 30.743 78.6229 30.237 79.4589 30.237C80.2949 30.237 80.8449 30.743 80.8449 31.513V35H82.3409V31.271C82.3409 29.885 81.3949 28.961 79.9759 28.961ZM92.1091 26.86H85.5971V28.147H88.0721V35H89.6231V28.147H92.1091V26.86ZM96.4329 28.961C95.6629 28.961 94.9809 29.236 94.5299 29.786V26.42H93.0339V35H94.5299V31.513C94.5299 30.743 95.0799 30.237 95.9159 30.237C96.7519 30.237 97.3019 30.743 97.3019 31.513V35H98.7979V31.271C98.7979 29.885 97.8519 28.961 96.4329 28.961ZM105.83 31.942C105.83 30.149 104.642 28.961 102.871 28.961C101.089 28.961 99.9119 30.204 99.9119 32.074C99.9119 33.9 101.122 35.11 102.937 35.11C104.059 35.11 104.994 34.604 105.522 33.812L104.367 33.229C104.015 33.658 103.52 33.933 102.915 33.933C102.046 33.933 101.606 33.405 101.496 32.569H105.786C105.808 32.393 105.83 32.151 105.83 31.942ZM102.871 30.138C103.674 30.138 104.147 30.655 104.257 31.557H101.496C101.617 30.655 102.079 30.138 102.871 30.138ZM119.449 26.86L117.502 32.921L115.599 26.86H114.147L112.266 32.921L110.308 26.86H108.647L111.463 35H112.904L114.873 29.049L116.853 35H118.294L121.099 26.86H119.449ZM126.906 31.942C126.906 30.149 125.718 28.961 123.947 28.961C122.165 28.961 120.988 30.204 120.988 32.074C120.988 33.9 122.198 35.11 124.013 35.11C125.135 35.11 126.07 34.604 126.598 33.812L125.443 33.229C125.091 33.658 124.596 33.933 123.991 33.933C123.122 33.933 122.682 33.405 122.572 32.569H126.862C126.884 32.393 126.906 32.151 126.906 31.942ZM123.947 30.138C124.75 30.138 125.223 30.655 125.333 31.557H122.572C122.693 30.655 123.155 30.138 123.947 30.138ZM131.518 28.961C130.616 28.961 129.967 29.324 129.549 29.929V26.42H128.053V35H129.494L129.527 34.109C129.945 34.736 130.605 35.11 131.518 35.11C133.113 35.11 134.356 33.889 134.356 32.063C134.356 30.204 133.113 28.961 131.518 28.961ZM131.177 33.823C130.198 33.823 129.549 33.108 129.549 32.03C129.549 30.963 130.198 30.237 131.177 30.237C132.145 30.237 132.805 30.963 132.805 32.041C132.805 33.108 132.145 33.823 131.177 33.823Z" fill="#002444"/>
<path d="M67.8418 23.05C68.6418 23.05 69.1768 22.645 69.1768 22.035C69.1768 21.38 68.5518 21.12 68.0168 20.96L67.7618 20.885C67.3568 20.77 67.0068 20.62 67.0068 20.21C67.0068 19.825 67.3518 19.565 67.8718 19.565C68.2718 19.565 68.5868 19.695 68.8468 19.94L69.0268 19.675C68.7418 19.405 68.3768 19.25 67.8768 19.25C67.1168 19.25 66.6118 19.655 66.6118 20.265C66.6118 20.845 67.0518 21.08 67.5718 21.225L67.8218 21.3C68.3818 21.465 68.7818 21.655 68.7818 22.075C68.7818 22.475 68.4068 22.735 67.8168 22.735C67.4318 22.735 67.0768 22.625 66.7918 22.35L66.6368 22.62C66.9168 22.915 67.3668 23.05 67.8418 23.05ZM69.9371 23H70.3171V19.3H69.9371V23ZM74.6437 21.035H73.0737V21.355H74.2487C74.2087 22.185 73.6987 22.735 72.9087 22.735C72.0537 22.735 71.4887 22.1 71.4887 21.15C71.4887 20.2 72.0537 19.565 72.9037 19.565C73.2987 19.565 73.6237 19.66 73.8887 19.875L74.1387 19.63C73.7787 19.36 73.3937 19.25 72.9037 19.25C71.8087 19.25 71.0887 20.01 71.0887 21.15C71.0887 22.29 71.8137 23.05 72.9037 23.05C73.9687 23.05 74.6487 22.31 74.6487 21.15C74.6487 21.11 74.6437 21.075 74.6437 21.035ZM75.318 23H75.698L75.693 19.96L78.263 23H78.508V19.3H78.128L78.133 22.34L75.563 19.3H75.318V23ZM80.8404 23H81.2204V19.3H80.8404V23ZM82.2321 23H82.6121L82.6071 19.96L85.1771 23H85.4221V19.3H85.0421L85.0471 22.34L82.4771 19.3H82.2321V23ZM89.933 19.3H87.168V19.615H88.363V23H88.743V19.615H89.933V19.3ZM91.9426 23.05C93.0476 23.05 93.7876 22.29 93.7876 21.15C93.7876 20.01 93.0476 19.25 91.9426 19.25C90.8326 19.25 90.0876 20.01 90.0876 21.15C90.0876 22.29 90.8326 23.05 91.9426 23.05ZM91.9426 22.735C91.0676 22.735 90.4876 22.1 90.4876 21.15C90.4876 20.2 91.0676 19.565 91.9426 19.565C92.8076 19.565 93.3926 20.2 93.3926 21.15C93.3926 22.1 92.8076 22.735 91.9426 22.735ZM97.4996 23.05C98.1446 23.05 98.6696 22.775 98.9996 22.33L98.7396 22.09C98.4746 22.475 98.0546 22.735 97.5046 22.735C96.6196 22.735 96.0296 22.095 96.0296 21.14C96.0296 20.195 96.6246 19.565 97.5146 19.565C98.0196 19.565 98.3946 19.795 98.6546 20.095L98.8946 19.85C98.5546 19.48 98.1046 19.25 97.4996 19.25C96.3796 19.25 95.6296 20.005 95.6296 21.14C95.6296 22.285 96.3796 23.05 97.4996 23.05ZM102.359 23H102.764L101.144 19.3H100.784L99.1639 23H99.5689L99.9839 22.035H101.944L102.359 23ZM100.124 21.715L100.969 19.76L101.809 21.715H100.124ZM106.147 23L105.097 21.425C105.587 21.28 105.887 20.9 105.887 20.395C105.887 19.735 105.397 19.3 104.647 19.3H103.282V23H103.662V21.49H104.627H104.712L105.697 23H106.147ZM103.662 19.615H104.597C105.137 19.615 105.492 19.925 105.492 20.395C105.492 20.86 105.132 21.175 104.597 21.175H103.662V19.615ZM108.028 19.3H106.773V23H108.028C109.108 23 109.823 22.26 109.823 21.16C109.823 20.04 109.108 19.3 108.028 19.3ZM107.998 22.685H107.153V19.615H107.998C108.858 19.615 109.428 20.23 109.428 21.16C109.428 22.07 108.858 22.685 107.998 22.685ZM112.746 19.3H109.981V19.615H111.176V23H111.556V19.615H112.746V19.3ZM114.755 23.05C115.86 23.05 116.6 22.29 116.6 21.15C116.6 20.01 115.86 19.25 114.755 19.25C113.645 19.25 112.9 20.01 112.9 21.15C112.9 22.29 113.645 23.05 114.755 23.05ZM114.755 22.735C113.88 22.735 113.3 22.1 113.3 21.15C113.3 20.2 113.88 19.565 114.755 19.565C115.62 19.565 116.205 20.2 116.205 21.15C116.205 22.1 115.62 22.735 114.755 22.735ZM117.364 23H117.744L117.739 19.96L120.309 23H120.554V19.3H120.174L120.179 22.34L117.609 19.3H117.364V23ZM121.563 23H121.943V19.3H121.563V23ZM124.58 23.05C125.225 23.05 125.75 22.775 126.08 22.33L125.82 22.09C125.555 22.475 125.135 22.735 124.585 22.735C123.7 22.735 123.11 22.095 123.11 21.14C123.11 20.195 123.705 19.565 124.595 19.565C125.1 19.565 125.475 19.795 125.735 20.095L125.975 19.85C125.635 19.48 125.185 19.25 124.58 19.25C123.46 19.25 122.71 20.005 122.71 21.14C122.71 22.285 123.46 23.05 124.58 23.05Z" fill="#002444"/>
<g clip-path="url(#clip0_1_5945)">
<path d="M45.5245 15.3654C44.1197 15.7053 42.6889 17.1033 41.6895 19.1157C41.3562 19.7821 40.9904 20.6705 41.0361 20.7097C41.0949 20.762 42.7412 21.0103 43.7081 21.1148C45.0344 21.2586 47.6347 21.2586 48.9349 21.1148C50.1632 20.984 51.6137 20.7425 51.6137 20.677C51.6137 20.5397 51.1826 19.5468 50.8558 18.9261C49.4055 16.1821 47.4714 14.8886 45.5245 15.3654Z" fill="#002444"/>
<path d="M42.3034 15.9141C40.4153 16.548 38.5989 17.6847 37.2204 19.096C36.8871 19.4358 36.8546 19.4946 36.9591 19.5404C37.606 19.8017 39.8402 20.4878 40.056 20.4878C40.1342 20.4878 40.2323 20.3245 40.3761 19.9454C40.9574 18.4754 41.8526 17.0251 42.728 16.1234C42.9828 15.8686 43.1659 15.6531 43.1396 15.6531C43.1071 15.6528 42.7348 15.7704 42.3034 15.9141Z" fill="#002444"/>
<path d="M49.9868 16.2215C50.8558 17.1231 51.6789 18.4754 52.267 19.9454C52.4173 20.3375 52.5088 20.4878 52.5936 20.4878C52.7961 20.4878 55.0698 19.7887 55.684 19.5404C55.7885 19.4946 55.7427 19.4228 55.3574 19.0373C54.0376 17.6915 52.2605 16.5743 50.4704 15.9602C49.3399 15.5746 49.3532 15.5681 49.9868 16.2215Z" fill="#002444"/>
<path d="M35.7832 20.8599C34.5092 22.774 33.8298 24.7472 33.6208 27.1319L33.5815 27.5435H36.2603H38.9323L38.9651 27.2627C38.9846 27.1124 39.0174 26.6485 39.0369 26.237C39.1021 24.937 39.4614 22.7548 39.7818 21.7223L39.9058 21.3367L39.6315 21.2715C38.8801 21.0754 37.6976 20.7161 37.0705 20.4876C36.6784 20.3438 36.3256 20.2263 36.2866 20.2263C36.2406 20.226 36.0185 20.5136 35.7832 20.8599Z" fill="#002444"/>
<path d="M55.6315 20.4613C55.1284 20.6574 53.4558 21.167 52.9137 21.2975L52.7437 21.3367L52.9202 21.9706C53.273 23.2251 53.6388 25.6488 53.6388 26.7596C53.6388 27.0274 53.6583 27.3149 53.6781 27.3932L53.7174 27.5435H56.3894H59.0551L59.0224 27.0991C58.8786 25.3808 58.4605 23.8585 57.7221 22.3429C57.2713 21.4348 56.4744 20.2263 56.3306 20.2328C56.2651 20.2328 55.958 20.3373 55.6315 20.4613Z" fill="#002444"/>
<path d="M40.5789 22.0359C40.2066 23.4014 39.932 25.1392 39.8732 26.6093L39.834 27.5435H46.3088H52.7898V26.9686C52.7898 26.2695 52.6395 24.8127 52.4632 23.8522C52.3457 23.1729 51.9731 21.6113 51.9209 21.559C51.9079 21.546 51.5746 21.5918 51.1827 21.6636C47.8246 22.2712 44.2574 22.2319 40.8927 21.559C40.7292 21.5263 40.7162 21.5458 40.5789 22.0359Z" fill="#002444"/>
<path d="M33.6208 28.8635C33.8298 31.2612 34.5092 33.2278 35.7897 35.142C36.1425 35.6778 36.2406 35.7823 36.3516 35.7561C36.4301 35.7366 36.9592 35.56 37.5341 35.364C38.1089 35.168 38.8798 34.9262 39.2391 34.8281L39.899 34.6516L39.7815 34.2728C39.4614 33.2471 39.1021 31.0584 39.0366 29.7649C39.0171 29.3533 38.9843 28.8895 38.9648 28.7327L38.9323 28.4584H36.2603H33.5815L33.6208 28.8635Z" fill="#002444"/>
<path d="M39.8666 29.4316C39.9383 30.8886 40.1996 32.5414 40.5787 33.9592C40.716 34.4558 40.729 34.4753 40.8793 34.4361C41.1993 34.3575 43.1007 34.0832 43.8716 34.005C44.8843 33.9005 47.7589 33.9005 48.7716 34.005C49.5425 34.0835 51.4438 34.3578 51.7574 34.4361C51.9142 34.4753 51.9272 34.4556 52.1232 33.7044C52.4955 32.2866 52.7896 30.2482 52.7896 29.0265V28.4581H46.3086H39.8208L39.8666 29.4316Z" fill="#002444"/>
<path d="M53.6778 28.667C53.6583 28.7845 53.6321 29.2289 53.6126 29.647C53.5473 31.006 53.1945 33.1554 52.8612 34.2464L52.7437 34.6449L53.7304 34.9257C54.2727 35.0825 55.0761 35.3308 55.5075 35.4876C55.9453 35.6444 56.3241 35.7749 56.3569 35.7749C56.4419 35.7749 57.0428 34.906 57.4153 34.2396C58.2973 32.6848 58.8526 30.8227 59.0227 28.8628L59.0614 28.458H56.3826H53.7106L53.6778 28.667Z" fill="#002444"/>
<path d="M44.7603 34.8019C43.3165 34.8869 41.0298 35.207 41.0298 35.3245C41.0298 35.4355 41.4284 36.3765 41.7092 36.9383C42.7089 38.931 44.1396 40.3095 45.5507 40.6428C47.478 41.0937 49.3987 39.8196 50.8164 37.1474C51.13 36.5528 51.6136 35.4553 51.6136 35.331C51.6136 35.2002 49.3662 34.8932 47.6936 34.7952C46.4198 34.7237 46.1193 34.7237 44.7603 34.8019Z" fill="#002444"/>
<path d="M39.4291 35.6517C38.9783 35.7824 37.2992 36.3245 36.9856 36.4421C36.8289 36.5008 36.8354 36.5073 37.2797 36.9582C38.606 38.3104 40.3831 39.4276 42.1732 40.0418C43.3034 40.4273 43.2904 40.4338 42.6565 39.7805C41.7746 38.8658 40.9774 37.559 40.3828 36.05C40.1348 35.4361 40.1608 35.4491 39.4291 35.6517Z" fill="#002444"/>
<path d="M52.4173 35.6254C51.8227 37.298 50.9603 38.768 49.9868 39.7805C49.3532 40.4338 49.3399 40.4273 50.4704 40.0418C52.2605 39.4276 54.0376 38.3104 55.3574 36.9647C55.743 36.5791 55.7887 36.5073 55.6839 36.4616C54.9653 36.1743 52.8091 35.5144 52.5806 35.5144C52.5151 35.5144 52.4433 35.5666 52.4173 35.6254Z" fill="#002444"/>
</g>
<defs>
<clipPath id="clip0_1_5945">
<rect width="26" height="26" fill="white" transform="translate(33.3218 15)"/>
</clipPath>
</defs>
</svg>
